<svg width="32" height="32" viewBox="0 0 32 32" fill="none" xmlns="http://www.w3.org/2000/svg">
  <rect width="32" height="32" rx="8" fill="#4f8ef7"/>
  <path d="M10 11.5l2.5-2.5a1.2 1.2 0 011.7 0l1.3 1.3a1.2 1.2 0 010 1.7l-.8.8c.8 1.5 2 2.7 3.5 3.5l.8-.8a1.2 1.2 0 011.7 0l1.3 1.3a1.2 1.2 0 010 1.7L19.5 21a8 8 0 01-9.5-9.5z" stroke="#fff" stroke-width="1.4" stroke-linejoin="round"/>
  <path d="M18 9.5c2.5.5 4.5 2.5 5 5" stroke="#fff" stroke-width="1.3" stroke-linecap="round" opacity="0.6"/>
  <path d="M18 12.5c1 .3 1.8 1.1 2.1 2.1" stroke="#fff" stroke-width="1.3" stroke-linecap="round" opacity="0.6"/>
</svg>
